<svg width="720" height="860" viewBox="0 0 720 860" fill="none" xmlns="http://www.w3.org/2000/svg">
  <defs>
    <linearGradient id="hvBg" x1="60" y1="40" x2="660" y2="820" gradientUnits="userSpaceOnUse">
      <stop stop-color="#F8FAFF"/>
      <stop offset="0.42" stop-color="#E4ECFF"/>
      <stop offset="1" stop-color="#D0D9FF"/>
    </linearGradient>
    <linearGradient id="hvSuit" x1="360" y1="240" x2="360" y2="700" gradientUnits="userSpaceOnUse">
      <stop stop-color="#F3F6FF"/>
      <stop offset="0.55" stop-color="#B7C8FF"/>
      <stop offset="1" stop-color="#4A62C4"/>
    </linearGradient>
  </defs>
  <rect width="720" height="860" rx="48" fill="url(#hvBg)"/>
  <path d="M120 200L200 720" stroke="#FFD67B" stroke-width="14" stroke-linecap="round" opacity="0.35"/>
  <path d="M600 180L520 700" stroke="#7D64FF" stroke-width="12" stroke-linecap="round" opacity="0.22"/>
  <path d="M360 120L280 700" stroke="#3B5CC8" stroke-width="10" stroke-linecap="round" opacity="0.18"/>
  <circle cx="560" cy="200" r="96" fill="#FFD67B" fill-opacity="0.26"/>
  <circle cx="150" cy="260" r="88" fill="#7D64FF" fill-opacity="0.12"/>
  <path d="M360 210C404 210 440 246 440 292V352C440 374 430 394 414 410L386 438L448 710H272L334 438L306 410C290 394 280 374 280 352V292C280 246 316 210 360 210Z" fill="url(#hvSuit)"/>
  <path d="M318 268C330 238 346 216 360 202C374 216 390 238 402 268L384 312H336L318 268Z" fill="#1E2A55" fill-opacity="0.52"/>
  <rect x="322" y="158" width="76" height="66" rx="32" fill="#FFE8D6"/>
  <path d="M332 156C346 134 374 134 388 156" stroke="#1E2A55" stroke-width="8" stroke-linecap="round" opacity="0.42"/>
  <path d="M200 520H520" stroke="#3B5CC8" stroke-width="8" stroke-linecap="round" opacity="0.2"/>
  <path d="M360 520L420 620H300L360 520Z" fill="#FFD67B" fill-opacity="0.45"/>
  <path d="M110 760H610" stroke="#3B5CC8" stroke-width="8" stroke-linecap="round" opacity="0.24"/>
</svg>
